<?xml version="1.0" standalone="no"?>
<!DOCTYPE svg PUBLIC "-//W3C//DTD SVG 20010904//EN"
 "http://www.w3.org/TR/2001/REC-SVG-20010904/DTD/svg10.dtd">
<svg version="1.0" xmlns="http://www.w3.org/2000/svg"
 width="512.000000pt" height="512.000000pt" viewBox="0 0 512.000000 512.000000"
 preserveAspectRatio="xMidYMid meet">

<g transform="translate(0.000000,512.000000) scale(0.100000,-0.100000)"
fill="#000000" stroke="none">
<path d="M2032 4869 c-193 -34 -391 -174 -495 -350 -41 -69 -87 -202 -87 -250
l0 -29 -501 0 c-365 0 -513 -3 -543 -12 -58 -17 -138 -99 -154 -158 -10 -34
-12 -168 -10 -530 3 -449 4 -488 22 -522 21 -43 69 -93 109 -114 l27 -15 0
-701 c0 -521 3 -711 12 -742 16 -55 99 -138 154 -154 31 -9 290 -12 1061 -12
l1021 0 5 -30 c8 -40 77 -106 124 -119 21 -6 61 -11 89 -11 48 0 52 -2 59 -27
3 -16 20 -59 37 -96 l31 -68 -41 -42 c-102 -105 -97 -204 17 -318 114 -114
214 -119 318 -17 l41 41 85 -37 c46 -20 89 -36 94 -36 6 0 13 -33 15 -74 6
-87 30 -134 91 -174 38 -25 48 -27 147 -27 99 0 109 2 147 27 61 40 85 87 91
174 2 41 9 74 15 74 5 0 48 16 94 36 l85 37 41 -41 c104 -102 204 -97 318 17
114 114 119 213 17 318 l-41 42 31 68 c17 37 34 80 37 94 6 25 11 27 80 31 87
6 138 33 176 95 21 34 24 50 24 144 0 98 -2 108 -27 146 -39 60 -87 85 -170
91 -52 4 -71 9 -75 21 -3 9 -21 52 -39 96 l-34 80 40 40 c100 102 94 203 -19
316 -67 67 -109 89 -174 89 -33 0 -94 -24 -119 -47 -17 -15 -18 -1 -18 339 l0
355 43 27 c46 30 88 82 105 135 17 49 17 968 0 1023 -6 22 -31 62 -55 88 -73
81 -62 80 -640 80 l-503 0 0 29 c0 48 -46 180 -87 251 -49 83 -180 214 -263
263 -36 21 -101 49 -145 64 -77 26 -88 27 -345 29 -146 1 -289 -2 -318 -7z
m519 -481 c60 -17 149 -103 149 -143 0 -3 -171 -5 -380 -5 -209 0 -380 3 -380
8 0 35 85 118 142 139 45 16 417 17 469 1z m-20 -1537 l29 -29 0 -219 c0 -173
-3 -231 -16 -274 -50 -169 -275 -222 -395 -92 -61 65 -64 77 -67 340 l-4 243
30 30 30 30 182 0 182 0 29 -29z m1380 -1212 c67 -36 98 -68 137 -143 38 -74
38 -187 1 -267 -32 -68 -83 -120 -152 -156 -45 -23 -64 -27 -137 -27 -72 0
-93 4 -136 26 -75 40 -107 70 -145 140 -31 58 -34 70 -33 148 0 72 4 93 26
136 38 73 69 106 129 139 71 38 102 45 182 40 51 -3 81 -11 128 -36z"/>
<path d="M2258 2624 c-77 -41 -75 -169 2 -209 60 -31 137 -10 165 45 57 110
-58 223 -167 164z"/>
</g>
</svg>
